<mxfile host="Electron" modified="2023-11-12T08:52:07.492Z" agent="Mozilla/5.0 (Windows NT 10.0; Win64; x64) AppleWebKit/537.36 (KHTML, like Gecko) draw.io/22.0.3 Chrome/114.0.5735.289 Electron/25.8.4 Safari/537.36" etag="qn7WJdpnGVaQ3TMOGdQF" version="22.0.3" type="device">
  <diagram name="Page-1" id="kgB-wETXrCpTs4rMepLz">
    <mxGraphModel dx="1036" dy="606" grid="1" gridSize="10" guides="1" tooltips="1" connect="1" arrows="1" fold="1" page="1" pageScale="1" pageWidth="850" pageHeight="1100" math="0" shadow="0">
      <root>
        <mxCell id="0" />
        <mxCell id="1" parent="0" />
        <mxCell id="F5jeCPqwl80UGBn9z123-3" style="edgeStyle=orthogonalEdgeStyle;rounded=0;orthogonalLoop=1;jettySize=auto;html=1;exitX=0.5;exitY=1;exitDx=0;exitDy=0;entryX=0.5;entryY=0;entryDx=0;entryDy=0;" edge="1" parent="1" source="F5jeCPqwl80UGBn9z123-1" target="F5jeCPqwl80UGBn9z123-2">
          <mxGeometry relative="1" as="geometry" />
        </mxCell>
        <mxCell id="F5jeCPqwl80UGBn9z123-1" value="&lt;font style=&quot;font-size: 31px;&quot;&gt;Start&lt;/font&gt;" style="ellipse;whiteSpace=wrap;html=1;" vertex="1" parent="1">
          <mxGeometry x="370" y="40" width="120" height="80" as="geometry" />
        </mxCell>
        <mxCell id="F5jeCPqwl80UGBn9z123-2" value="Get the random generated cards for you and the computer" style="rounded=0;whiteSpace=wrap;html=1;" vertex="1" parent="1">
          <mxGeometry x="300" y="180" width="150" height="90" as="geometry" />
        </mxCell>
      </root>
    </mxGraphModel>
  </diagram>
</mxfile>
